<?xml version="1.0" encoding="utf-8"?>
<!-- Generator: Adobe Illustrator 19.0.0, SVG Export Plug-In . SVG Version: 6.00 Build 0)  -->
<svg version="1.1" id="Layer_1" xmlns="http://www.w3.org/2000/svg" xmlns:xlink="http://www.w3.org/1999/xlink" x="0px" y="0px"
	 viewBox="0 0 269.6 311.3" style="enable-background:new 0 0 269.6 311.3;" xml:space="preserve">
<style type="text/css">
	.st0{fill:#FFD040;}
	.st1{fill:#A57D2D;}
	.st2{fill:#FCF286;}
	.st3{fill:#FEC02F;}
	.st4{fill:#FAA640;}
</style>
<g id="XMLID_1_">
	<polygon id="XMLID_26_" class="st0" points="5,230.6 5,80.7 134.8,5.8 264.6,80.7 264.6,230.6 134.8,305.5 	"/>
	<path id="XMLID_23_" class="st1" d="M134.8,11.5l124.8,72v144.1l-124.8,72L10,227.7V83.6L134.8,11.5 M134.8,0L0,77.8v155.6
		l134.8,77.8l134.8-77.8V77.8L134.8,0L134.8,0z"/>
</g>
<g id="XMLID_2_">
	<path id="XMLID_10_" class="st2" d="M210.3,198.1h-151c-2.3,0-4.5-1.1-5.8-3c-19.9-29.2-21.4-85.4-21.6-93.7c0-0.3,0-0.7,0-1
		c0-3.8,3.1-7,7-7h0c3.8,0,7,3.1,7,6.9c0,0,0,0.5,0,1.2c0.6,19.8,16.9,35.8,36.9,35.8c20.4,0,36.9-16.6,36.9-36.9c0-3.9,3.1-7,7-7
		h16c3.9,0,7,3.1,7,7c0,20.4,16.6,36.9,36.9,36.9c20,0,36.3-16,36.9-35.8c0-0.7,0-1.1,0-1.1c0-3.8,3.1-6.9,7-6.9h0c3.8,0,7,3.1,7,7
		c0,0.3,0,0.7,0,1c-0.1,8.3-1.6,64.5-21.6,93.7C214.7,197,212.6,198.1,210.3,198.1z"/>
	<path id="XMLID_9_" class="st3" d="M230.6,93.4C230.6,93.4,230.6,93.4,230.6,93.4c-3.9,0-7,3.1-7,6.9c0,0,0,0.4,0,1.1
		c-0.6,19.9-16.9,35.8-36.9,35.8c-20.4,0-36.9-16.6-36.9-36.9c0-3.9-3.1-7-7-7h-8v104.7h75.5c2.3,0,4.5-1.1,5.8-3
		c19.9-29.2,21.4-85.4,21.6-93.7c0-0.3,0-0.7,0-1C237.6,96.5,234.5,93.4,230.6,93.4z"/>
	<path id="XMLID_8_" class="st3" d="M134.8,69.6c-12.4,0-22.5,10.1-22.5,22.5s10.1,22.5,22.5,22.5c12.4,0,22.5-10.1,22.5-22.5
		S147.2,69.6,134.8,69.6z"/>
	<path id="XMLID_7_" class="st4" d="M134.8,69.6v45.1c12.4,0,22.5-10.1,22.5-22.5S147.2,69.6,134.8,69.6z"/>
	<path id="XMLID_6_" class="st3" d="M38.9,87c-12.4,0-22.5,10.1-22.5,22.5S26.5,132,38.9,132s22.5-10.1,22.5-22.5S51.4,87,38.9,87z"
		/>
	<path id="XMLID_5_" class="st4" d="M230.6,87c-12.4,0-22.5,10.1-22.5,22.5c0,12.4,10.1,22.5,22.5,22.5s22.5-10.1,22.5-22.5
		C253.2,97.1,243.1,87,230.6,87z"/>
	<path id="XMLID_4_" class="st3" d="M210.3,221h-151c-3.9,0-7-3.1-7-7v-20.8h164.9V214C217.2,217.9,214.1,221,210.3,221z"/>
	<path id="XMLID_3_" class="st4" d="M134.8,221h75.5c3.9,0,7-3.1,7-7v-20.8h-82.5V221z"/>
</g>
</svg>
