<?xml version="1.0" encoding="iso-8859-1"?>
<!-- Generator: Adobe Illustrator 19.0.0, SVG Export Plug-In . SVG Version: 6.00 Build 0)  -->
<svg xmlns="http://www.w3.org/2000/svg" xmlns:xlink="http://www.w3.org/1999/xlink" version="1.1" id="Layer_1" x="0px" y="0px" viewBox="0 0 511.994 511.994" style="enable-background:new 0 0 511.994 511.994;" xml:space="preserve">
<g>
	<g>
		<path style="fill:#FFFFFF;" d="M490.45,125.446L272.77,24.016c-10.01-4.66-21.91-0.33-26.58,9.68l-16,34.3H30    c-11.05,0-20,8.95-20,20v360c0,11.05,8.95,20,20,20h240c2.19,0,4.29-0.35,6.26-1l44.97,20.98c10.01,4.66,21.91,0.33,26.58-9.68    l152.31-326.27C504.79,142.016,500.46,130.116,490.45,125.446z"/>
		<polygon style="fill:#FF765B;" points="332.86,179.096 373.9,291.856 290,322.396 290,194.696   "/>
		<path style="fill:#FF765B;" d="M150.17,187.996c44.24,38.34,70.58,55.59,69.18,84.52c-1.42,29.22-30.29,42.02-51.51,33.15    c-9.96,19.42,14.6,42.33,17.16,42.33c-0.68,0-8.98,0-70,0c13.45-11.26,25.3-26.76,17.1-42.18c-21.43,8.63-49.66-4.38-51.11-33.24    C79.52,243.176,108.07,224.476,150.17,187.996z"/>
	</g>
	<g>
		<path d="M250,197.996c5.52,0,10-4.48,10-10s-4.48-10-10-10c-5.52,0-10,4.48-10,10S244.48,197.996,250,197.996z"/>
		<path d="M30,477.996h240c1.752,0,3.487-0.165,5.195-0.464l41.814,19.51c15.017,6.991,32.886,0.437,39.861-14.516l152.312-326.272    c6.993-14.991,0.487-32.876-14.509-39.872L276.991,14.951c-14.992-6.979-32.873-0.465-39.863,14.519L223.82,57.996H30    c-16.542,0-30,13.458-30,30v360C0,464.538,13.458,477.996,30,477.996z M300,201.699l26.883-9.785l34.2,93.966L300,308.114V201.699    z M255.252,37.924c2.331-4.998,8.296-7.171,13.294-4.843l217.676,101.428c4.998,2.331,7.167,8.293,4.836,13.287L338.748,474.069    c-2.331,4.998-8.297,7.17-13.29,4.845l-30.529-14.242c3.221-4.818,5.071-10.571,5.071-16.675V329.398l77.32-28.145    c5.189-1.889,7.865-7.627,5.977-12.817l-41.04-112.76c-1.888-5.187-7.627-7.864-12.817-5.977L300,180.415V87.996    c0-16.542-13.458-30-30-30h-24.111L255.252,37.924z M20,87.996c0-5.514,4.486-10,10-10h240c5.514,0,10,4.486,10,10v360    c0,5.621-4.582,10-10,10H30c-5.514,0-10-4.486-10-10V87.996z"/>
		<path d="M92.364,310.886c9.7,6.202,21.173,8.662,32.243,7.171c-1.017,7.968-8.731,16.166-16.026,22.272    c-3.225,2.7-4.416,7.129-2.98,11.083c1.437,3.953,5.193,6.585,9.399,6.585h70c5.523,0,10-4.477,10-10    c0-4.173-2.556-7.749-6.188-9.248c-2.868-2.235-11.712-11.676-13.132-20.735c10.979,1.427,22.527-0.993,32.08-7.025    c12.937-8.168,20.802-22.014,21.578-37.987c0,0,0-0.001,0-0.002c1.437-29.688-19.704-47.601-54.728-77.278    c-5.684-4.816-11.561-9.796-17.892-15.283c-3.758-3.256-9.338-3.256-13.098,0c-6.253,5.418-12.144,10.39-17.841,15.199    c-33.887,28.599-56.274,47.493-54.777,77.44C71.799,288.934,79.585,302.715,92.364,310.886z M138.679,210.922    c3.728-3.146,7.537-6.36,11.487-9.733c3.977,3.404,7.788,6.633,11.516,9.792c33.729,28.58,48.601,42.017,47.68,61.052    c-0.462,9.508-4.823,17.337-12.279,22.044c-7.626,4.815-17.354,5.721-25.387,2.363c-4.816-2.014-10.372,0.018-12.754,4.663    c-5.566,10.853-4.346,23.939,3.426,36.894h-24.696c10.653-16.364,7.179-29.502,3.258-36.875    c-2.401-4.516-7.822-6.492-12.565-4.581c-8.064,3.247-17.73,2.287-25.226-2.505c-7.367-4.71-11.686-12.51-12.161-21.958    C90.018,252.877,105.786,238.681,138.679,210.922z"/>
		<path d="M250,157.996c5.523,0,10-4.477,10-10v-40c0-5.523-4.477-10-10-10s-10,4.477-10,10v40    C240,153.519,244.477,157.996,250,157.996z"/>
		<path d="M50,437.996c5.523,0,10-4.477,10-10v-40c0-5.523-4.477-10-10-10s-10,4.477-10,10v40C40,433.519,44.477,437.996,50,437.996    z"/>
		<path d="M434.112,198.559c5.005,2.333,10.954,0.172,13.29-4.835l16.91-36.25c2.335-5.005,0.17-10.955-4.835-13.29    c-5.004-2.333-10.955-0.17-13.29,4.835l-16.91,36.25C426.942,190.274,429.107,196.224,434.112,198.559z"/>
	</g>
</g>















</svg>
