<?xml version="1.0" encoding="iso-8859-1"?>
<!-- Generator: Adobe Illustrator 19.0.0, SVG Export Plug-In . SVG Version: 6.00 Build 0)  -->
<svg version="1.1" id="Capa_1" xmlns="http://www.w3.org/2000/svg" xmlns:xlink="http://www.w3.org/1999/xlink" x="0px" y="0px"
	 viewBox="0 0 512 512" style="enable-background:new 0 0 512 512;" xml:space="preserve">
<g>
	<g>
		<path d="M328,72H184C82.542,72,0,154.542,0,256s82.542,184,184,184h38.667c5.522,0,10-4.477,10-10s-4.478-10-10-10H184
			c-90.43,0-164-73.57-164-164S93.57,92,184,92h144c90.43,0,164,73.57,164,164s-73.57,164-164,164h-41.333c-5.522,0-10,4.477-10,10
			s4.478,10,10,10H328c101.458,0,184-82.542,184-184S429.458,72,328,72z"/>
	</g>
</g>
<g>
	<g>
		<path d="M254.117,420H254c-5.522,0-10,4.477-10,10s4.478,10,10,10h0.117c5.522,0,10-4.477,10-10S259.64,420,254.117,420z"/>
	</g>
</g>
<g>
	<g>
		<path d="M437,147.307C407.865,118.09,369.155,102,328,102H185.394c-85.449,0-155.158,68.889-155.393,153.565
			C29.887,296.724,45.867,335.48,75,364.694C104.135,393.91,142.846,410,184,410c13.896,0,27.43-4.896,38.109-13.787l8.577-7.141
			c14.669-12.21,35.961-12.21,50.627,0l9.65,8.033C300.952,405.421,313.61,410,326.606,410c85.449,0,155.158-68.889,155.393-153.565
			C482.113,215.276,466.133,176.52,437,147.307z M326.606,390c-8.33,0-16.445-2.936-22.848-8.266l-9.65-8.033
			c-11.04-9.191-24.574-13.787-38.108-13.787s-27.068,4.596-38.109,13.787l-8.578,7.142C202.22,386.748,193.23,390,184,390
			c-35.802,0-69.482-14.002-94.838-39.428c-25.354-25.424-39.261-59.145-39.161-94.951C50.205,181.942,110.942,122,185.394,122H328
			c35.802,0,69.483,14.002,94.838,39.428c25.354,25.424,39.261,59.145,39.161,94.951C461.795,330.058,401.058,390,326.606,390z"/>
	</g>
</g>
<g>
	<g>
		<path d="M422.015,201.05l-0.303-0.473c-2.995-4.64-9.186-5.975-13.825-2.978c-4.64,2.996-5.973,9.186-2.978,13.825l0.234,0.363
			c1.906,2.995,5.141,4.633,8.446,4.633c1.836,0,3.694-0.506,5.359-1.565C423.607,211.89,424.98,205.709,422.015,201.05z"/>
	</g>
</g>
<g>
	<g>
		<path d="M435.545,233.644c-1.203-5.39-6.549-8.782-11.938-7.582c-5.39,1.203-8.784,6.548-7.581,11.938
			c1.311,5.871,1.975,11.927,1.975,18c0,15.954-4.58,31.45-13.246,44.813c-3.006,4.634-1.685,10.826,2.949,13.831
			c1.681,1.09,3.566,1.611,5.431,1.611c3.275,0,6.485-1.607,8.4-4.56C432.307,295.084,438,275.825,438,256
			C438,248.464,437.174,240.942,435.545,233.644z"/>
	</g>
</g>
<g>
	<g>
		<path d="M107.273,300.856l-0.265-0.413c-2.975-4.653-9.158-6.016-13.812-3.04c-4.653,2.974-6.015,9.158-3.04,13.812l0.282,0.438
			c1.909,2.978,5.134,4.603,8.427,4.603c1.848,0,3.718-0.512,5.389-1.584C108.903,311.69,110.255,305.505,107.273,300.856z"/>
	</g>
</g>
<g>
	<g>
		<path d="M104.103,197.593c-4.645-2.991-10.832-1.648-13.822,2.994C79.63,217.128,74,236.29,74,256
			c0,8.3,1.001,16.564,2.975,24.565c1.125,4.558,5.208,7.607,9.701,7.607c0.793,0,1.599-0.095,2.403-0.293
			c5.361-1.322,8.637-6.742,7.314-12.104C94.805,269.34,94,262.687,94,256c0-15.862,4.528-31.28,13.097-44.586
			C110.086,206.77,108.746,200.582,104.103,197.593z"/>
	</g>
</g>
<g>
	<g>
		<path d="M402.236,234.447c-0.679-2.581-2.36-4.784-4.672-6.118l-86.116-49.719c-1.568-1.021-3.437-1.621-5.447-1.621H206
			c-2.011,0-3.879,0.599-5.447,1.621l-86.116,49.719c-4.783,2.761-6.404,8.907-3.643,13.69l68.993,119.5
			c1.853,3.208,5.213,5.002,8.67,5.001c1.696,0,3.416-0.432,4.99-1.341l52.253-30.168h20.599l52.254,30.168
			c1.575,0.909,3.294,1.342,4.99,1.341c3.456,0,6.818-1.793,8.67-5.001l68.963-119.447
			C402.532,239.774,402.913,237.029,402.236,234.447z M192.107,342.859L133.096,240.65L196,204.332v120.679
			c0,5.379,4.25,9.753,9.573,9.979c0.044,0.006,0.086,0.016,0.135,0.017L192.107,342.859z M296,315.011h-27.021h-25.957H216V196.989
			h80V315.011z M319.893,342.859l-13.601-7.853c-0.005-0.003-0.01-0.006-0.015-0.01c5.393-0.148,9.723-4.557,9.723-9.986V204.332
			l62.903,36.317L319.893,342.859z"/>
	</g>
</g>
<g>
	<g>
		<path d="M292.374,248.695l-27.535-33.332c-2.186-2.646-5.407-4.165-8.84-4.165c-3.432,0-6.653,1.518-8.839,4.164l-27.536,33.335
			c-3.494,4.232-3.493,10.375,0.002,14.605l27.534,33.333c2.186,2.647,5.407,4.165,8.839,4.165c3.433,0,6.654-1.518,8.84-4.164
			l27.534-33.332C295.869,259.073,295.87,252.93,292.374,248.695z M256,275.933L239.534,256L256,236.066L272.466,256L256,275.933z"
			/>
	</g>
</g>
<g>
</g>
<g>
</g>
<g>
</g>
<g>
</g>
<g>
</g>
<g>
</g>
<g>
</g>
<g>
</g>
<g>
</g>
<g>
</g>
<g>
</g>
<g>
</g>
<g>
</g>
<g>
</g>
<g>
</g>
</svg>
