<?xml version="1.0"?>
<svg xmlns="http://www.w3.org/2000/svg" viewBox="0 0 512.00012 512.00012" class=""><g><path d="m512 256c0 141.386719-114.613281 256-256 256s-256-114.613281-256-256 114.613281-256 256-256 256 114.613281 256 256zm0 0" fill="#ff6e40" data-original="#FF6E40" class=""/><g fill="#ffd54f"><path d="m512 256c.046875-67.894531-26.972656-133.011719-75.070312-180.929688l-180.929688 180.929688zm0 0" data-original="#000000" class="" style="fill:#6D6D6D" data-old_color="#6d6d6d"/><path d="m256 0c-67.894531-.046875-133.011719 26.972656-180.929688 75.070312l180.929688 180.929688zm0 0" data-original="#000000" class="" style="fill:#6D6D6D" data-old_color="#6d6d6d"/><path d="m256 512c67.894531.046875 133.011719-26.972656 180.929688-75.070312l-180.929688-180.929688zm0 0" data-original="#000000" class="" style="fill:#6D6D6D" data-old_color="#6d6d6d"/><path d="m0 256c-.046875 67.894531 26.972656 133.011719 75.070312 180.929688l180.929688-180.929688zm0 0" data-original="#000000" class="" style="fill:#6D6D6D" data-old_color="#6d6d6d"/></g><path d="m432 256c0 97.203125-78.796875 176-176 176s-176-78.796875-176-176 78.796875-176 176-176 176 78.796875 176 176zm0 0" fill="#ffb300" data-original="#FFB300" class="active-path" style="fill:##F4B84" data-old_color="#DF2E2E"/><path d="m333.984375 211.902344-77.984375-73.949219-78.398438 74.304687c-20.078124 19.871094-23.71875 50.992188-8.773437 74.960938s44.492187 34.398438 71.171875 25.117188v27.664062h-16v32h64v-32h-16v-27.3125c21.863281 7.605469 46.152344 1.945312 62.398438-14.542969 23.5625-23.984375 23.378906-62.484375-.414063-86.242187zm0 0" fill="#fff" data-original="#FFF" class="" style="fill:#6D6D6D" data-old_color="#6d6d6d"/><path d="m320 128h32v32h-32zm0 0" fill="#fff" data-original="#FFF" class="" style="fill:#6D6D6D" data-old_color="#6d6d6d"/></g> </svg>
