<?xml version="1.0"?>
<svg xmlns="http://www.w3.org/2000/svg" id="icons" enable-background="new 0 0 64 64" viewBox="0 0 64 64" class=""><g><path d="m1 6.5h62v55h-62z" fill="#e6e9ed" data-original="#E6E9ED" class=""/><path d="m45 10.5h-26c-7.73 0-14 6.27-14 14s6.27 14 14 14h26c7.73 0 14-6.27 14-14s-6.27-14-14-14z" fill="#a0d468" data-original="#A0D468" class="" data-old_color="#a0d468" style="fill:#CC0000"/><path d="m19 42.49h11v15h-11z" fill="#fff" data-original="#FFF" class=""/><path d="m34 42.49h11v15h-11z" fill="#fff" data-original="#FFF" class=""/><path d="m63 6.5h-62v-2c0-1.11.89-2 2-2h58c1.11 0 2 .89 2 2z" fill="#ccd1d9" data-original="#CCD1D9" class="" data-old_color="#ccd1d9" style="fill:#CC0000"/><path d="m26.57 48.35c.569.57.569 1.5 0 2.07l-2.07 2.07-2.07-2.07c-.569-.57-.569-1.5 0-2.07.57-.569 1.5-.569 2.07 0 .57-.57 1.5-.57 2.07 0z" fill="#ed5565" data-original="#ED5565" class="active-path" data-old_color="#ed5565" style="fill:#CC0000"/><path d="m37.732 48.222h3.536v3.536h-3.536z" fill="#ed5565" transform="matrix(.707 -.707 .707 .707 -23.779 42.573)" data-original="#ED5565" class="active-path" data-old_color="#ed5565" style="fill:#CC0000"/><g fill="#fff"><path d="m50 26.01h4v3h-4z" data-original="#000000" class="" style="fill:#000000"/><path d="m50 20.01h4v3h-4z" data-original="#000000" class="" style="fill:#000000"/><path d="m21.5 22.5h3v4h-3z" data-original="#000000" class="" style="fill:#000000"/><path d="m27.5 22.5h3v4h-3z" data-original="#000000" class="" style="fill:#000000"/><path d="m39.5 22.5h3v4h-3z" data-original="#000000" class="" style="fill:#000000"/><path d="m33.5 22.5h3v4h-3z" data-original="#000000" class="" style="fill:#000000"/><path d="m9.99 26.01h4.01v3h-4.01z" data-original="#000000" class="" style="fill:#000000"/><path d="m9.99 20.01h4.01v3h-4.01z" data-original="#000000" class="" style="fill:#000000"/></g><path d="m1 5.499c-.553 0-1-.447-1-1 0-1.654 1.346-3 3-3 .553 0 1 .447 1 1s-.447 1-1 1c-.552 0-1 .448-1 1 0 .553-.447 1-1 1z" data-original="#000000" class="" style="fill:#000000"/><path d="m63 5.499c-.553 0-1-.447-1-1 0-.552-.448-1-1-1-.553 0-1-.447-1-1s.447-1 1-1c1.654 0 3 1.346 3 3 0 .553-.447 1-1 1z" data-original="#000000" class="" style="fill:#000000"/><path d="m61 3.499h-58c-.553 0-1-.447-1-1s.447-1 1-1h58c.553 0 1 .447 1 1s-.447 1-1 1z" data-original="#000000" class="" style="fill:#000000"/><path d="m4.03 5.499c-.553 0-1.005-.447-1.005-1s.442-1 .994-1h.011c.552 0 1 .447 1 1s-.448 1-1 1z" data-original="#000000" class="" style="fill:#000000"/><path d="m7.029 5.499c-.553 0-1.005-.447-1.005-1s.442-1 .994-1h.011c.552 0 1 .447 1 1s-.448 1-1 1z" data-original="#000000" class="" style="fill:#000000"/><path d="m10.032 5.499c-.553 0-1.005-.447-1.005-1s.442-1 .994-1h.011c.552 0 1 .447 1 1s-.448 1-1 1z" data-original="#000000" class="" style="fill:#000000"/><path d="m1 62.501c-.553 0-1-.447-1-1v-57.002c0-.553.447-1 1-1s1 .447 1 1v57.002c0 .553-.447 1-1 1z" data-original="#000000" class="" style="fill:#000000"/><path d="m63 62.501c-.553 0-1-.447-1-1v-57.002c0-.553.447-1 1-1s1 .447 1 1v57.002c0 .553-.447 1-1 1z" data-original="#000000" class="" style="fill:#000000"/><path d="m63 7.499h-62c-.553 0-1-.447-1-1s.447-1 1-1h62c.553 0 1 .447 1 1s-.447 1-1 1z" data-original="#000000" class="" style="fill:#000000"/><path d="m63 62.501h-62c-.553 0-1-.447-1-1s.447-1 1-1h62c.553 0 1 .447 1 1s-.447 1-1 1z" data-original="#000000" class="" style="fill:#000000"/><path d="m30.001 58.49h-10.999c-.553 0-1-.447-1-1v-14.996c0-.553.447-1 1-1h10.999c.553 0 1 .447 1 1v14.996c0 .553-.447 1-1 1zm-9.999-2h8.999v-12.996h-8.999z" data-original="#000000" class="" style="fill:#000000"/><path d="m24.502 53.493c-.256 0-.512-.098-.707-.293l-2.071-2.07c-.96-.961-.96-2.524-.001-3.484.724-.726 1.88-.913 2.779-.496.897-.417 2.054-.229 2.778.495.96.961.96 2.524.001 3.484l-2.072 2.071c-.195.196-.451.293-.707.293zm-1.036-4.57c-.071 0-.21.018-.327.135-.182.182-.182.478 0 .659l1.363 1.362 1.364-1.363c.181-.181.181-.477-.001-.658-.118-.117-.256-.135-.327-.135-.072 0-.21.018-.329.136-.391.391-1.023.391-1.414 0-.119-.119-.257-.136-.329-.136z" data-original="#000000" class="" style="fill:#000000"/><path d="m44.999 58.49h-10.999c-.553 0-1-.447-1-1v-14.996c0-.553.447-1 1-1h10.999c.553 0 1 .447 1 1v14.996c0 .553-.447 1-1 1zm-9.999-2h8.999v-12.996h-8.999z" data-original="#000000" class="" style="fill:#000000"/><path d="m39.499 53.493c-.256 0-.512-.098-.707-.293l-2.5-2.5c-.391-.391-.391-1.023 0-1.414l2.5-2.5c.391-.391 1.023-.391 1.414 0l2.5 2.5c.391.391.391 1.023 0 1.414l-2.5 2.5c-.195.196-.451.293-.707.293zm-1.086-3.5 1.086 1.086 1.086-1.086-1.086-1.086z" data-original="#000000" class="" style="fill:#000000"/><path d="m19 39.5c-8.271 0-15-6.729-15-15s6.729-15 15-15c.553 0 1 .447 1 1s-.447 1-1 1c-7.168 0-13 5.832-13 13s5.832 13 13 13c.553 0 1 .447 1 1s-.447 1-1 1z" data-original="#000000" class="" style="fill:#000000"/><path d="m45 39.5c-.553 0-1-.447-1-1s.447-1 1-1c7.169 0 13.001-5.832 13.001-13.001s-5.832-13.001-13.001-13.001c-.553 0-1-.447-1-1s.447-1 1-1c8.271 0 15.001 6.729 15.001 15.001s-6.73 15.001-15.001 15.001z" data-original="#000000" class="" style="fill:#000000"/><path d="m45 39.5h-25.999c-.553 0-1-.447-1-1s.447-1 1-1h25.999c.553 0 1 .447 1 1s-.447 1-1 1z" data-original="#000000" class="" style="fill:#000000"/><path d="m45 11.501h-25.999c-.553 0-1-.447-1-1s.447-1 1-1h25.999c.553 0 1 .447 1 1s-.447 1-1 1z" data-original="#000000" class="" style="fill:#000000"/><path d="m24.5 27.499h-3c-.553 0-1-.447-1-1v-4c0-.553.447-1 1-1h3c.553 0 1 .447 1 1v4c0 .553-.447 1-1 1zm-2-2h1v-2h-1z" data-original="#000000" class="" style="fill:#000000"/><path d="m30.5 27.499h-3c-.553 0-1-.447-1-1v-4c0-.553.447-1 1-1h3c.553 0 1 .447 1 1v4c0 .553-.447 1-1 1zm-2-2h1v-2h-1z" data-original="#000000" class="" style="fill:#000000"/><path d="m36.5 27.499h-3c-.553 0-1-.447-1-1v-4c0-.553.447-1 1-1h3c.553 0 1 .447 1 1v4c0 .553-.447 1-1 1zm-2-2h1v-2h-1z" data-original="#000000" class="" style="fill:#000000"/><path d="m42.5 27.499h-3c-.553 0-1-.447-1-1v-4c0-.553.447-1 1-1h3c.553 0 1 .447 1 1v4c0 .553-.447 1-1 1zm-2-2h1v-2h-1z" data-original="#000000" class="" style="fill:#000000"/><path d="m13.998 24.009h-4.004c-.553 0-1-.447-1-1v-3c0-.553.447-1 1-1h4.004c.553 0 1 .447 1 1v3c0 .553-.447 1-1 1zm-3.004-2h2.004v-1h-2.004z" data-original="#000000" class="" style="fill:#000000"/><path d="m13.998 30.009h-4.004c-.553 0-1-.447-1-1v-3c0-.553.447-1 1-1h4.004c.553 0 1 .447 1 1v3c0 .553-.447 1-1 1zm-3.004-2h2.004v-1h-2.004z" data-original="#000000" class="" style="fill:#000000"/><path d="m54.001 24.009h-4.004c-.553 0-1-.447-1-1v-3c0-.553.447-1 1-1h4.004c.553 0 1 .447 1 1v3c0 .553-.447 1-1 1zm-3.004-2h2.004v-1h-2.004z" data-original="#000000" class="" style="fill:#000000"/><path d="m54.001 30.009h-4.004c-.553 0-1-.447-1-1v-3c0-.553.447-1 1-1h4.004c.553 0 1 .447 1 1v3c0 .553-.447 1-1 1zm-3.004-2h2.004v-1h-2.004z" data-original="#000000" class="" style="fill:#000000"/><path d="m59.001 58.512h-10.001c-.553 0-1-.447-1-1s.447-1 1-1h10.001c.553 0 1 .447 1 1s-.447 1-1 1z" data-original="#000000" class="" style="fill:#000000"/><path d="m59.001 55.497h-10.001c-.553 0-1-.447-1-1s.447-1 1-1h10.001c.553 0 1 .447 1 1s-.447 1-1 1z" data-original="#000000" class="" style="fill:#000000"/><path d="m59.001 52.482h-10.001c-.553 0-1-.447-1-1s.447-1 1-1h10.001c.553 0 1 .447 1 1s-.447 1-1 1z" data-original="#000000" class="" style="fill:#000000"/><path d="m9.957 57.497h-5c-.553 0-1-.447-1-1s.447-1 1-1h5c.553 0 1 .447 1 1s-.447 1-1 1z" data-original="#000000" class="" style="fill:#000000"/><path d="m14.958 56.498h-1.958c-.553 0-1-.447-1-1s.447-1 1-1h1.958c.553 0 1 .447 1 1s-.447 1-1 1z" data-original="#000000" class="" style="fill:#000000"/><path d="m14.958 58.497c-.26 0-.519-.101-.715-.3l-1.958-1.999c-.386-.395-.38-1.028.015-1.415.396-.386 1.027-.379 1.415.015l1.958 1.999c.386.395.38 1.028-.015 1.415-.195.19-.447.285-.7.285z" data-original="#000000" class="" style="fill:#000000"/><path d="m14.958 58.497h-1.958c-.553 0-1-.447-1-1s.447-1 1-1h1.958c.553 0 1 .447 1 1s-.447 1-1 1z" data-original="#000000" class="" style="fill:#000000"/></g> </svg>
